<svg xmlns="http://www.w3.org/2000/svg">
	<symbol id="shape-info" viewBox="0 0 16 16">
		<title>Info</title>
		<path d="M8,2C4.686,2,2,4.687,2,8c0,3.313,2.686,6,6,6c3.313,0,6-2.687,6-6C14,4.687,11.313,2,8,2z M8,4
			c0.552,0,1,0.448,1,1S8.552,6,8,6C7.447,6,7,5.552,7,5S7.447,4,8,4z M10,12H6v-1h1.25V8H6.249V7H8.75v4H10V12z"/>
	</symbol>
	<symbol id="shape-github" viewBox="0 0 16 16">
		<title>Github</title>
		<path style="fill-rule:evenodd;clip-rule:evenodd;" 
			d="M8,0C3.582,0,0,3.582,0,8c0,3.535,2.292,6.533,5.471,7.591
			c0.4,0.072,0.546-0.174,0.546-0.387c0-0.189-0.007-0.693-0.011-1.359c-2.226,0.482-2.695-1.072-2.695-1.072
			c-0.364-0.926-0.888-1.172-0.888-1.172c-0.727-0.496,0.055-0.486,0.055-0.486c0.803,0.057,1.226,0.824,1.226,0.824
			c0.713,1.223,1.873,0.871,2.328,0.666c0.073-0.518,0.279-0.869,0.508-1.07c-1.776-0.201-3.644-0.889-3.644-3.954
			c0-0.873,0.312-1.587,0.824-2.146C3.637,5.232,3.362,4.419,3.797,3.318c0,0,0.672-0.215,2.2,0.82C6.636,3.96,7.32,3.872,8,3.869
			C8.68,3.872,9.364,3.96,10.003,4.138c1.527-1.035,2.198-0.82,2.198-0.82c0.437,1.101,0.162,1.915,0.08,2.117
			c0.512,0.559,0.821,1.273,0.821,2.146c0,3.073-1.87,3.75-3.652,3.948c0.287,0.246,0.543,0.734,0.543,1.482
			c0,1.068-0.01,1.932-0.01,2.193c0,0.215,0.144,0.463,0.55,0.385C13.71,14.529,16,11.533,16,8C16,3.582,12.418,0,8,0z" />
	</symbol>
	<symbol id="shape-twitter" viewBox="0 0 16 16">
		<title>Twitter</title>
		<path d="M15,3.627c-0.515,0.229-1.068,0.383-1.649,0.452c0.592-0.355,1.048-0.918,1.262-1.589
			c-0.554,0.329-1.169,0.568-1.822,0.697c-0.524-0.558-1.271-0.907-2.098-0.907c-1.586,0-2.872,1.286-2.872,2.872
			c0,0.225,0.026,0.444,0.075,0.654c-2.387-0.12-4.504-1.263-5.921-3.001C1.728,3.229,1.586,3.724,1.586,4.25
			c0,0.996,0.506,1.875,1.277,2.39C2.393,6.625,1.95,6.496,1.562,6.281c0,0.013,0,0.024,0,0.037c0,1.392,0.989,2.552,2.304,2.816
			C3.625,9.199,3.372,9.234,3.11,9.234c-0.186,0-0.365-0.02-0.541-0.051c0.366,1.142,1.427,1.971,2.683,1.993
			c-0.982,0.771-2.222,1.23-3.566,1.23c-0.232,0-0.461-0.014-0.686-0.041c1.271,0.816,2.78,1.291,4.402,1.291
			c5.284,0,8.174-4.377,8.174-8.172c0-0.124-0.004-0.248-0.01-0.371C14.127,4.708,14.615,4.203,15,3.627z" />
	</symbol>
</svg>
